<?xml version="1.0" standalone="no"?>
<!DOCTYPE svg PUBLIC "-//W3C//DTD SVG 20010904//EN"
 "http://www.w3.org/TR/2001/REC-SVG-20010904/DTD/svg10.dtd">
<svg version="1.0" xmlns="http://www.w3.org/2000/svg"
 width="700.000000pt" height="700.000000pt" viewBox="0 0 700.000000 700.000000"
 preserveAspectRatio="xMidYMid meet">
<metadata>
Created by potrace 1.11, written by Peter Selinger 2001-2013
</metadata>
<g transform="translate(0.000000,700.000000) scale(0.100000,-0.100000)"
fill="#000000" stroke="none">
<path d="M3830 6468 c-258 -21 -497 -87 -725 -198 -193 -95 -329 -185 -478
-315 -94 -82 -234 -232 -267 -286 -3 -5 -51 9 -105 30 -267 105 -538 102 -795
-6 -385 -163 -634 -533 -644 -957 l-1 -54 -103 -69 c-371 -249 -616 -635 -698
-1098 -10 -56 -12 -354 -3 -390 4 -16 10 -48 13 -70 36 -264 200 -586 402
-790 230 -232 511 -380 821 -434 100 -17 183 -19 1177 -20 588 -1 1072 -3
1074 -6 3 -3 6 -274 6 -603 l1 -598 25 -31 c36 -45 95 -57 149 -29 56 29 55
20 56 663 1 326 3 595 6 597 3 3 461 7 1019 9 558 2 1033 7 1055 11 22 4 58
12 80 18 22 5 48 12 59 14 26 5 87 24 111 34 11 5 57 25 103 44 91 38 184 93
277 164 65 49 215 196 255 250 14 19 34 46 46 60 52 68 138 239 178 353 25 76
47 167 63 265 14 91 8 332 -11 439 -31 167 -118 388 -200 508 -14 21 -26 42
-26 47 0 4 -4 10 -8 12 -4 2 -28 30 -54 63 -87 113 -217 233 -341 312 -37 23
-70 43 -73 43 -3 0 -18 8 -32 18 -32 22 -161 79 -194 86 -13 3 -41 12 -63 20
-37 13 -40 17 -43 58 -15 222 -102 530 -212 747 -155 308 -435 617 -719 793
-136 84 -372 193 -475 218 -17 5 -56 15 -87 24 -173 47 -431 70 -619 54z"/>
</g>
</svg>
